Coordinates
version=1
nRows=7
nColumns=63
inDegrees=yes

Units are S.I. units (second, meters, Newtons, ...)
If the header above contains a line with 'inDegrees', this indicates whether rotational values are in degrees (yes) or radians (no).

endheader
time	pelvis_tilt	pelvis_list	pelvis_rotation	pelvis_tx	pelvis_ty	pelvis_tz	hip_flexion_r	hip_adduction_r	hip_rotation_r	knee_angle_r	knee_angle_r_beta	ankle_angle_r	subtalar_angle_r	mtp_angle_r	hip_flexion_l	hip_adduction_l	hip_rotation_l	knee_angle_l	knee_angle_l_beta	ankle_angle_l	subtalar_angle_l	mtp_angle_l	L5_S1_Flex_Ext	L5_S1_Lat_Bending	L5_S1_axial_rotation	L4_L5_Flex_Ext	L4_L5_Lat_Bending	L4_L5_axial_rotation	L3_L4_Flex_Ext	L3_L4_Lat_Bending	L3_L4_axial_rotation	L2_L3_Flex_Ext	L2_L3_Lat_Bending	L2_L3_axial_rotation	L1_L2_Flex_Ext	L1_L2_Lat_Bending	L1_L2_axial_rotation	L1_T12_Flex_Ext	L1_T12_Lat_Bending	L1_T12_axial_rotation	Abs_r3	Abs_r2	Abs_r1	Abs_t1	Abs_t2	neck_flexion	neck_bending	neck_rotation	arm_flex_r	arm_add_r	arm_rot_r	elbow_flex_r	pro_sup_r	wrist_flex_r	wrist_dev_r	arm_flex_l	arm_add_l	arm_rot_l	elbow_flex_l	pro_sup_l	wrist_flex_l	wrist_dev_l
      1.24137931	     -2.96512344	     -2.16070123	     90.45153479	      0.24822106	      0.93530336	      0.66153067	      9.13103870	     -4.97469972	     -7.72789400	     20.69069118	      0.36112069	     41.74205869	      3.78577796	      0.00000000	      6.06401580	      5.01544508	      1.73869165	     14.13542500	      0.24670971	     33.43940324	     -7.95953960	      0.00000000	      0.14562135	     -0.49724240	      2.10001041	      0.27043340	     -0.66133239	      2.23126106	      0.23924131	     -1.20899517	      2.23126106	      0.16643064	     -1.20899517	      1.83750911	      0.13522398	     -1.01397670	      1.70625846	      0.08320804	     -0.77022848	      1.57500781	      1.04015873	     -5.62490549	     11.67962789	      0.00000000	      0.00000000	     21.84968325	     -3.40129067	      7.13722655	     25.30723981	    -17.08942253	      3.97418197	    119.58100878	     84.83441767	    -18.40608323	     -0.45451469	     12.10232997	    -18.55478399	     -2.21197104	    140.55132393	     87.70668085	    -10.84374808	      8.58876139
      1.25862069	     -2.95354988	     -2.03393336	     90.99580291	      0.24649091	      0.93548219	      0.66097860	      9.01097744	     -5.07266518	     -7.89239158	     20.90407618	      0.36484496	     42.01546613	      3.21709860	      0.00000000	      6.06302547	      5.07613579	      1.76774749	     14.45788285	      0.25233766	     33.72027192	     -7.62955592	      0.00000000	      0.13906776	     -0.47059379	      2.00433349	      0.25826274	     -0.62588974	      2.12960433	      0.22847443	     -1.14420174	      2.12960433	      0.15894054	     -1.14420174	      1.75379180	      0.12913832	     -0.95963485	      1.62852096	      0.07946332	     -0.72894978	      1.50325012	      0.99334711	     -5.32345105	     11.14750157	      0.00000000	      0.00000000	     21.20071466	     -3.50489477	      7.54352741	     24.73120268	    -17.04556100	      3.83433393	    120.67861222	     84.96491703	    -17.88868304	     -2.67273658	     11.24179937	    -19.00634139	     -2.17537264	    141.17774076	     88.43282366	    -10.43548719	      5.14193386
      1.27586207	     -2.97555561	     -1.79339240	     91.09540774	      0.24559701	      0.93554574	      0.66037147	      8.86093199	     -5.16417020	     -7.88785661	     21.20256626	      0.37005459	     42.37037592	      3.06077625	      0.00000000	      5.84850492	      5.13839755	      1.65103764	     14.58150443	      0.25449526	     34.02206041	     -7.69935439	      0.00000000	      0.10334074	     -0.45398071	      1.97437809	      0.19191408	     -0.60379435	      2.09777672	      0.16977850	     -1.10380871	      2.09777672	      0.11810813	     -1.10380871	      1.72758083	      0.09596221	     -0.92575747	      1.60418220	      0.05904890	     -0.70321613	      1.48078356	      0.73815254	     -5.13552064	     10.98089860	      0.00000000	      0.00000000	     20.73479994	     -3.52377824	      7.69274074	     24.03775716	    -17.09840852	      3.77240328	    122.13725204	     85.10860302	    -17.80210515	     -3.24550573	     10.89169815	    -19.31175391	     -2.23200130	    142.06697166	     88.70670196	    -10.43223266	      4.64005033
      1.29310345	     -2.73599575	     -1.77029873	     91.75040803	      0.24415802	      0.93563419	      0.65933707	      8.77516974	     -4.85806145	     -7.59515173	     21.38146424	      0.37317695	     42.33420267	      1.57055232	      0.00000000	      5.91191340	      4.74186196	      0.41096005	     14.86404565	      0.25942654	     35.12212303	     -5.06728776	      0.00000000	      0.12712705	     -0.40212048	      1.87855630	      0.23608765	     -0.53482024	      1.99596607	      0.20885704	     -0.97771573	      1.99596607	      0.14529351	     -0.97771573	      1.64373676	      0.11805018	     -0.82000408	      1.52632699	      0.07264040	     -0.62288462	      1.40891722	      0.90805583	     -4.54886729	     10.44796656	      0.00000000	      0.00000000	     19.42283360	     -3.36560517	      8.81968026	     22.91346675	    -17.07816263	      3.53077201	    122.93307443	     85.82405517	    -17.11154756	     -6.20024081	     10.68124721	    -19.80685220	     -0.04622139	    141.22045870	     88.85509012	    -15.79088253	     -3.60643967
      1.31034483	     -2.77530871	     -1.58065879	     91.83311343	      0.24341561	      0.93541497	      0.65849896	      8.68338965	     -4.93690552	     -7.62172980	     21.77004713	      0.37995900	     42.61933256	      1.35460003	      0.00000000	      5.70500738	      4.82870146	      0.38630314	     14.92457775	      0.26048302	     35.64683927	     -5.07736189	      0.00000000	      0.10010109	     -0.39058702	      1.84237460	      0.18589773	     -0.51948073	      1.95752301	      0.16445608	     -0.94967327	      1.95752301	      0.11440554	     -0.94967327	      1.61207777	      0.09295387	     -0.79648504	      1.49692936	      0.05719776	     -0.60501929	      1.38178095	      0.71501207	     -4.41839844	     10.24673480	      0.00000000	      0.00000000	     18.91325359	     -3.30841717	      8.93255414	     22.00097230	    -17.18913791	      3.46618140	    124.09611559	     86.11619388	    -17.01699089	     -6.90601059	     10.60931600	    -19.91265316	     -0.25149950	    141.76258858	     88.97752228	    -15.87748225	     -4.03424191
      1.32758621	     -2.62902485	     -1.63848724	     92.31029922	      0.24286285	      0.93522381	      0.65812054	      8.79668833	     -4.57980776	     -6.80210154	     22.04289821	      0.38472115	     42.29517708	     -0.74652441	      0.00000000	      5.84478912	      4.47391957	     -0.99497027	     15.10426270	      0.26361912	     36.68866941	     -2.20039503	      0.00000000	      0.12134343	     -0.37499964	      1.80987839	      0.22534688	     -0.49874952	      1.92299579	      0.19935512	     -0.91177412	      1.92299579	      0.13868341	     -0.91177412	      1.58364359	      0.11267951	     -0.76469926	      1.47052619	      0.06933564	     -0.58087444	      1.35740879	      0.86674398	     -4.24207090	     10.06600065	      0.00000000	      0.00000000	     17.76719694	     -2.93801540	      8.67905000	     20.55492820	    -17.14395828	      2.76205562	    124.81877884	     86.72135947	    -16.48136104	     -9.87061788	     11.23604541	    -20.12484198	      1.43933803	    141.34798014	     88.94788758	    -19.31811680	     -7.81678418
      1.34482759	     -2.61092205	     -1.52099420	     92.28168196	      0.24245775	      0.93501739	      0.65781574	      8.76913579	     -4.57743371	     -6.84745119	     22.34222523	      0.38994539	     42.27346176	     -0.92818137	      0.00000000	      5.69814514	      4.50833361	     -0.86578763	     15.06955303	      0.26301332	     37.02939185	     -2.03855014	      0.00000000	      0.09802259	     -0.35595389	      1.77959712	      0.18203775	     -0.47341868	      1.89082194	      0.16104131	     -0.86546630	      1.89082194	      0.11203002	     -0.86546630	      1.55714748	      0.09102377	     -0.72586118	      1.44592266	      0.05601011	     -0.55137258	      1.33469784	      0.70016554	     -4.02662164	      9.89758533	      0.00000000	      0.00000000	     17.46391182	     -3.05070757	      8.69443529	     19.52242076	    -17.23729222	      2.66012142	    126.05350654	     86.90917736	    -16.47319377	    -10.35422597	     11.38995432	    -20.11411446	      1.10449786	    141.98826243	     88.98162282	    -19.42084590	     -7.73097596
